<mxfile host="app.diagrams.net" modified="2022-01-05T09:55:31.697Z" agent="5.0 (Windows)" etag="qkYbtakh9YvolkCkFQ6j" version="16.1.2" type="github">
  <diagram id="jkYpxWLWUkRBygMhXJqt" name="Page-1">
    <mxGraphModel dx="1182" dy="722" grid="1" gridSize="10" guides="1" tooltips="1" connect="1" arrows="1" fold="1" page="1" pageScale="1" pageWidth="850" pageHeight="1100" math="0" shadow="0">
      <root>
        <mxCell id="0" />
        <mxCell id="1" parent="0" />
        <mxCell id="Nz59Ewm_wMuDygFaatg--1" value="&lt;div style=&quot;font-size: 14px;&quot;&gt;Subject &lt;br style=&quot;font-size: 14px;&quot;&gt;&lt;/div&gt;&lt;div style=&quot;font-size: 14px;&quot;&gt;Play Game&lt;/div&gt;" style="rounded=0;whiteSpace=wrap;html=1;fontFamily=Times New Roman;fontSize=14;fontColor=#330000;strokeColor=#33FF33;strokeWidth=2;" vertex="1" parent="1">
          <mxGeometry x="40" y="160" width="70" height="40" as="geometry" />
        </mxCell>
        <mxCell id="Nz59Ewm_wMuDygFaatg--3" value="&lt;div&gt;EEG&lt;/div&gt;&lt;div&gt;Data&lt;/div&gt;&lt;div&gt;Collection&lt;br&gt;&lt;/div&gt;" style="rounded=0;whiteSpace=wrap;html=1;fontFamily=Times New Roman;fontSize=14;fontColor=#330000;strokeColor=#33FF33;strokeWidth=2;" vertex="1" parent="1">
          <mxGeometry x="40" y="220" width="70" height="50" as="geometry" />
        </mxCell>
        <mxCell id="Nz59Ewm_wMuDygFaatg--4" value="" style="endArrow=classic;html=1;rounded=0;fontFamily=Times New Roman;fontSize=14;fontColor=#330000;strokeWidth=2;" edge="1" parent="1">
          <mxGeometry width="50" height="50" relative="1" as="geometry">
            <mxPoint x="70" y="200" as="sourcePoint" />
            <mxPoint x="70" y="220" as="targetPoint" />
          </mxGeometry>
        </mxCell>
        <mxCell id="Nz59Ewm_wMuDygFaatg--5" value="Questionaire" style="rounded=0;whiteSpace=wrap;html=1;fontFamily=Times New Roman;fontSize=14;fontColor=#330000;strokeColor=#33FF33;strokeWidth=2;" vertex="1" parent="1">
          <mxGeometry x="130" y="160" width="80" height="40" as="geometry" />
        </mxCell>
        <mxCell id="Nz59Ewm_wMuDygFaatg--6" value="Label from Game Type" style="rounded=0;whiteSpace=wrap;html=1;fontFamily=Times New Roman;fontSize=14;fontColor=#330000;strokeColor=#33FF33;strokeWidth=2;" vertex="1" parent="1">
          <mxGeometry x="40" y="290" width="80" height="45" as="geometry" />
        </mxCell>
        <mxCell id="Nz59Ewm_wMuDygFaatg--7" value="Label from Questionaire" style="rounded=0;whiteSpace=wrap;html=1;fontFamily=Times New Roman;fontSize=14;fontColor=#330000;strokeColor=#33FF33;strokeWidth=2;" vertex="1" parent="1">
          <mxGeometry x="130" y="220" width="70" height="45" as="geometry" />
        </mxCell>
        <mxCell id="Nz59Ewm_wMuDygFaatg--8" value="Feature Extraction" style="rounded=0;whiteSpace=wrap;html=1;fontFamily=Times New Roman;fontSize=14;fontColor=#330000;strokeColor=#33FF33;strokeWidth=2;" vertex="1" parent="1">
          <mxGeometry x="140" y="294" width="85" height="40" as="geometry" />
        </mxCell>
        <mxCell id="Nz59Ewm_wMuDygFaatg--10" value="" style="endArrow=classic;html=1;rounded=0;fontFamily=Times New Roman;fontSize=14;fontColor=#330000;strokeWidth=2;" edge="1" parent="1">
          <mxGeometry width="50" height="50" relative="1" as="geometry">
            <mxPoint x="110" y="179.5" as="sourcePoint" />
            <mxPoint x="130" y="179.5" as="targetPoint" />
          </mxGeometry>
        </mxCell>
        <mxCell id="Nz59Ewm_wMuDygFaatg--12" value="Classification" style="rounded=0;whiteSpace=wrap;html=1;fontFamily=Times New Roman;fontSize=14;fontColor=#330000;strokeColor=#33FF33;strokeWidth=2;" vertex="1" parent="1">
          <mxGeometry x="246" y="300" width="90" height="30" as="geometry" />
        </mxCell>
        <mxCell id="Nz59Ewm_wMuDygFaatg--13" value="" style="endArrow=classic;html=1;rounded=0;fontFamily=Times New Roman;fontSize=14;fontColor=#330000;strokeWidth=2;" edge="1" parent="1">
          <mxGeometry width="50" height="50" relative="1" as="geometry">
            <mxPoint x="110" y="237.5" as="sourcePoint" />
            <mxPoint x="130" y="237.5" as="targetPoint" />
          </mxGeometry>
        </mxCell>
        <mxCell id="Nz59Ewm_wMuDygFaatg--15" value="" style="endArrow=classic;html=1;rounded=0;fontFamily=Times New Roman;fontSize=14;fontColor=#330000;strokeWidth=2;" edge="1" parent="1">
          <mxGeometry width="50" height="50" relative="1" as="geometry">
            <mxPoint x="74" y="270" as="sourcePoint" />
            <mxPoint x="74" y="290" as="targetPoint" />
          </mxGeometry>
        </mxCell>
        <mxCell id="Nz59Ewm_wMuDygFaatg--19" value="" style="endArrow=classic;html=1;rounded=0;fontFamily=Times New Roman;fontSize=14;fontColor=#330000;strokeWidth=2;" edge="1" parent="1">
          <mxGeometry width="50" height="50" relative="1" as="geometry">
            <mxPoint x="120" y="314.5" as="sourcePoint" />
            <mxPoint x="140" y="314.5" as="targetPoint" />
          </mxGeometry>
        </mxCell>
        <mxCell id="Nz59Ewm_wMuDygFaatg--20" value="" style="endArrow=classic;html=1;rounded=0;fontFamily=Times New Roman;fontSize=14;fontColor=#330000;strokeWidth=2;" edge="1" parent="1">
          <mxGeometry width="50" height="50" relative="1" as="geometry">
            <mxPoint x="225" y="313.5" as="sourcePoint" />
            <mxPoint x="245" y="313.5" as="targetPoint" />
          </mxGeometry>
        </mxCell>
        <mxCell id="Nz59Ewm_wMuDygFaatg--21" value="" style="endArrow=classic;html=1;rounded=0;fontFamily=Times New Roman;fontSize=14;fontColor=#330000;strokeWidth=2;" edge="1" parent="1">
          <mxGeometry width="50" height="50" relative="1" as="geometry">
            <mxPoint x="166" y="264" as="sourcePoint" />
            <mxPoint x="166" y="290" as="targetPoint" />
          </mxGeometry>
        </mxCell>
        <mxCell id="Nz59Ewm_wMuDygFaatg--24" value="" style="endArrow=classic;html=1;rounded=0;fontFamily=Times New Roman;fontSize=14;fontColor=#330000;strokeWidth=2;" edge="1" parent="1">
          <mxGeometry width="50" height="50" relative="1" as="geometry">
            <mxPoint x="162" y="201" as="sourcePoint" />
            <mxPoint x="162" y="221" as="targetPoint" />
          </mxGeometry>
        </mxCell>
      </root>
    </mxGraphModel>
  </diagram>
</mxfile>
